<svg id="Warstwa_1" data-name="Warstwa 1" xmlns="http://www.w3.org/2000/svg" viewBox="0 0 135.48 134.3"><path id="Path_11" data-name="Path 11" d="M87.14,32.64l15.56-5.36A14,14,0,1,0,101,20.53v.32L85.91,26A14,14,0,1,0,75.74,45.52L93.5,81.46a14.22,14.22,0,0,0-3.1,4.2L69.11,83.42a14,14,0,0,0-27.57,4.36A14.13,14.13,0,0,0,43,92.22L29.3,104.68a13.95,13.95,0,1,0,4,5.3L47.5,97.15a13.93,13.93,0,0,0,21-7.11L89,92.2a14,14,0,1,0,13.44-14.45,13.51,13.51,0,0,0-3.16.49L81.79,42.79A13.93,13.93,0,0,0,87.14,32.64Zm27.77-22a9.9,9.9,0,1,1-9.89,9.9h0a9.89,9.89,0,0,1,9.89-9.9ZM20.56,125.44a9.9,9.9,0,1,1,9.89-9.89h0a9.89,9.89,0,0,1-9.89,9.89ZM55.34,95.49a9.9,9.9,0,1,1,9.89-9.89h0a9.89,9.89,0,0,1-9.89,9.89h0Zm57.55-3.79A9.9,9.9,0,1,1,103,81.8h0a9.89,9.89,0,0,1,9.89,9.9ZM63.31,31.8a9.9,9.9,0,1,1,9.9,9.89h0a9.89,9.89,0,0,1-9.9-9.89Z" fill="#c8d655"/></svg>