<svg id="Warstwa_1" data-name="Warstwa 1" xmlns="http://www.w3.org/2000/svg" viewBox="0 0 175.21 161.87"><g id="Group_82" data-name="Group 82"><g id="Group_80" data-name="Group 80"><path id="Path_57" data-name="Path 57" d="M136.6,49.05a3,3,0,0,0-2.84-2.51,2.94,2.94,0,0,0-2.51,1.23h0a12.4,12.4,0,0,1-2.81,2.6,3.27,3.27,0,0,1-2.78-.65,3.06,3.06,0,0,1-1.47-2.8,7.15,7.15,0,0,1,2.1-3.22l5.31-5.49s1.26-1.25,1.7-1.65a1.79,1.79,0,0,1,2.17-.29c1,.6,1.83,1.51,3.15,1.21a3,3,0,0,0,2.36-3,3,3,0,0,0-.6-1.74h0a2.9,2.9,0,0,0-1.32-1,20.85,20.85,0,0,0-2.71-1.37c-3.1-1.32-6.7,1.06-8.1,2.63l-.1.12.1-.12s-5.67,6-8.57,9.5-.6,8.52-.08,9.42a11.57,11.57,0,0,0,5.77,4,7.66,7.66,0,0,0,7.39-1.48l.7-.68,2.27-2.21h0A3,3,0,0,0,136.6,49.05ZM127.94,33.4h0Zm-.31.35-.06.07Z" fill="#c8d655"/><path id="Path_58" data-name="Path 58" d="M153.72,24.07A11.54,11.54,0,0,0,148,20a7.67,7.67,0,0,0-7.39,1.49l-.7.68-2.27,2.2h0a3,3,0,1,0,4.49,3.87h0a12.2,12.2,0,0,1,2.81-2.6,3.28,3.28,0,0,1,2.78.66,3.08,3.08,0,0,1,1.47,2.8,7.23,7.23,0,0,1-2.1,3.22l-5.31,5.49s-1.26,1.25-1.7,1.65a1.81,1.81,0,0,1-2.17.3c-1-.61-1.84-1.52-3.16-1.23a3,3,0,0,0-2.36,3,3,3,0,0,0,.6,1.74h0a3.05,3.05,0,0,0,1.33,1A20.24,20.24,0,0,0,137,45.62c3.1,1.31,6.69-1.06,8.1-2.64l.1-.11-.1.11s5.67-6,8.57-9.48S154.24,25,153.72,24.07Zm-8.33,18.56,0,0Zm.26-.29.12-.13Z" fill="#c8d655"/></g><g id="Group_81" data-name="Group 81"><path id="Path_59" data-name="Path 59" d="M137.79,4.15a33.84,33.84,0,0,0-32.5,24.43l-47.43-.31H26.44A22.38,22.38,0,0,0,4.13,50.62v62.24a22.32,22.32,0,0,0,22.31,22.3h8L23.44,151.51a3.81,3.81,0,0,0,.36,4.68,3.69,3.69,0,0,0,2.76,1.2,4.06,4.06,0,0,0,1.87-.48L66.77,135.2H128a22.31,22.31,0,0,0,22.3-22.3V96.35s0-6.84,0-19.15V69.46a33.85,33.85,0,0,0-12.5-65.31Zm6.69,89.24v19.47A16.51,16.51,0,0,1,128,129.33H66a2.9,2.9,0,0,0-1.44.36L33.15,147.48l9.15-13.67a3,3,0,0,0,.16-3,2.91,2.91,0,0,0-2.56-1.56H26.43A16.52,16.52,0,0,1,9.92,112.74V50.62a16.52,16.52,0,0,1,16.51-16.5h77.73a36.13,36.13,0,0,0-.24,3.9,33.86,33.86,0,0,0,33.87,33.86,34.26,34.26,0,0,0,6.69-.66Zm5.81-27.55a30.27,30.27,0,0,1-5.81,1.94,31.33,31.33,0,0,1-6.69.76A30.51,30.51,0,0,1,107.28,38a30.09,30.09,0,0,1,.28-3.9,30.5,30.5,0,1,1,42.73,31.71Z" fill="#c8d655"/></g></g></svg>