<svg id="Warstwa_1" data-name="Warstwa 1" xmlns="http://www.w3.org/2000/svg" viewBox="0 0 135.48 134.3"><g id="Group_39" data-name="Group 39"><rect id="Rectangle_10" data-name="Rectangle 10" x="64.59" y="22.23" width="6.26" height="11.42" fill="#c8d655"/><rect id="Rectangle_11" data-name="Rectangle 11" x="26.7" y="63.77" width="11.42" height="6.26" fill="#c8d655"/><rect id="Rectangle_12" data-name="Rectangle 12" x="64.59" y="37.46" width="6.26" height="11.42" fill="#c8d655"/><rect id="Rectangle_13" data-name="Rectangle 13" x="41.93" y="63.77" width="11.42" height="6.26" fill="#c8d655"/><path id="Path_14" data-name="Path 14" d="M70.85,52.68H64.59V63.77H57.15V70h7.44v9.29h6.26V70H78.1V63.77H70.85Z" fill="#c8d655"/><rect id="Rectangle_14" data-name="Rectangle 14" x="97.14" y="63.77" width="11.42" height="6.26" fill="#c8d655"/><rect id="Rectangle_15" data-name="Rectangle 15" x="81.91" y="63.77" width="11.42" height="6.26" fill="#c8d655"/><rect id="Rectangle_16" data-name="Rectangle 16" x="64.59" y="83.12" width="6.26" height="11.42" fill="#c8d655"/><rect id="Rectangle_17" data-name="Rectangle 17" x="64.59" y="98.35" width="6.26" height="11.42" fill="#c8d655"/><path id="Path_15" data-name="Path 15" d="M129.34,63.77A61.77,61.77,0,0,0,70.85,5.23V5.17H69.28l-1.63,0c-.55,0-1.09,0-1.64,0H64.59v0a61.77,61.77,0,0,0,0,123.39h5.84a3.1,3.1,0,0,0,.43,0A61.77,61.77,0,0,0,129.35,70c.05-1,.08-2.06.08-3.1S129.4,64.82,129.34,63.77ZM70.85,122.48v-8.9H64.59v8.91A55.66,55.66,0,0,1,12.08,70H22.89V63.77H12.09a55.64,55.64,0,0,1,52.5-52.41v7.07h6.26V11.37a55.65,55.65,0,0,1,52.36,52.4H112.36V70h10.85A55.65,55.65,0,0,1,70.85,122.48Z" fill="#c8d655"/></g></svg>