<svg id="Warstwa_1" data-name="Warstwa 1" xmlns="http://www.w3.org/2000/svg" viewBox="0 0 135.48 161.87"><g id="Group_55" data-name="Group 55"><path id="Path_33-2" data-name="Path 33-2" d="M67.05,34.26h0c0-.81.07-1.6.12-2.38A42.43,42.43,0,0,0,51.89,29C27.26,29,6.57,50.13,6.57,76.29c0,0-2.38,38.83,39,74.28,4,3.38,8.75,3.38,11.93,0,41.35-35.44,39-74.28,39-74.28h0a50.28,50.28,0,0,0-1-10A32.27,32.27,0,0,1,67.05,34.26Zm-15.17,64c-11.92,0-21.46-11-21.46-23.63S40,51.81,51.88,51.81,73.35,61.93,73.35,74.6,63.81,98.23,51.88,98.23Z" fill="none" stroke="#c8d655" stroke-miterlimit="10" stroke-width="6"/><path d="M129,21.85v0A32.27,32.27,0,0,0,67,31.94c1.06.41,2.1.86,3.12,1.36a29.08,29.08,0,0,1,58.14,1h0a29.09,29.09,0,0,1-18,26.87,27.71,27.71,0,0,1-5.18,1.6A28.85,28.85,0,0,1,94.48,63v0A29.06,29.06,0,0,1,70.73,40.34a29.8,29.8,0,0,1-.62-5.88v-.14c0-.34,0-.68,0-1-1-.49-2.06-.95-3.12-1.36-.06.79-.12,1.58-.12,2.37v0a32.27,32.27,0,0,0,28.35,32v0a31.49,31.49,0,0,0,11.35-.6A32.23,32.23,0,0,0,129,21.85Z" fill="#c8d655"/></g><rect id="Rectangle_34" data-name="Rectangle 34" x="83.19" y="32.17" width="32.42" height="4.32" fill="#c8d655"/></svg>