<svg id="Warstwa_1" data-name="Warstwa 1" xmlns="http://www.w3.org/2000/svg" viewBox="0 0 175.21 161.87"><g id="Group_85" data-name="Group 85"><path id="Path_60" data-name="Path 60" d="M145.89,23l-7.77,10.36L130.35,23h-7l11.24,15L123.38,53h7l7.77-10.36L145.89,53h7L141.61,38l11.25-15Z" fill="#c8d655"/><g id="Group_84" data-name="Group 84"><g id="Group_83" data-name="Group 83"><path id="Path_61" data-name="Path 61" d="M137.77,4.14a33.86,33.86,0,0,0-32.51,24.44l-47.42-.31H26.42A22.38,22.38,0,0,0,4.11,50.62v62.24a22.32,22.32,0,0,0,22.31,22.3h7.95L23.42,151.51a3.81,3.81,0,0,0,.36,4.68,3.71,3.71,0,0,0,2.76,1.2,4.13,4.13,0,0,0,1.88-.48L66.75,135.2H128a22.32,22.32,0,0,0,22.31-22.31V96.35s0-6.84,0-19.15V69.46a33.85,33.85,0,0,0-12.5-65.32Zm6.69,89.25v19.47A16.5,16.5,0,0,1,128,129.32H66a2.91,2.91,0,0,0-1.44.37L33.13,147.47l9.16-13.66a3,3,0,0,0,.16-3,2.91,2.91,0,0,0-2.56-1.56H26.41a16.51,16.51,0,0,1-16.5-16.51V50.62a16.5,16.5,0,0,1,16.5-16.5h77.74a33.66,33.66,0,0,0,33.62,37.76,34.26,34.26,0,0,0,6.69-.66Zm5.81-27.57a29.82,29.82,0,0,1-5.81,1.94,30.17,30.17,0,0,1-6.69.76A30.51,30.51,0,0,1,107.26,38a30,30,0,0,1,.28-3.9,30.49,30.49,0,1,1,42.73,31.71Z" fill="#c8d655"/></g></g></g></svg>