<svg id="Warstwa_1" data-name="Warstwa 1" xmlns="http://www.w3.org/2000/svg" viewBox="0 0 143.24 161.87"><rect id="Rectangle_37" data-name="Rectangle 37" x="90.86" y="32.29" width="32.42" height="4.32" fill="#c8d655"/><g id="Group_61" data-name="Group 61"><path id="Path_38-2" data-name="Path 38-2" d="M76.1,39.52a41.92,41.92,0,0,0-6-2L66.76,27.3H53.13L49.75,37.57a43.12,43.12,0,0,0-13,5.49l-9.85-4.74-9.55,9.55,5,10a45.26,45.26,0,0,0-5.19,12.75L6.56,73.84v14.3l10.9,3.2c6.7,25,34.46,64.16,42.47,64.16,8.36,0,35.76-39.19,42.47-64.15l10.9-3.21V73.84l-10.6-3.22a47,47,0,0,0-1.44-4.74A32.27,32.27,0,0,1,76.1,39.52ZM59.94,104.91c-11.92,0-21.46-11-21.46-23.64S48,58.49,59.94,58.49,81.42,68.62,81.42,81.27s-9.55,23.64-21.48,23.64Z" fill="none" stroke="#c8d655" stroke-miterlimit="10" stroke-width="6"/><path d="M137.73,21.85v0a32.27,32.27,0,0,0-61.94,10.1c-.06.8-.12,1.58-.12,2.39v0a33.32,33.32,0,0,0,.43,5.18h0a32.26,32.26,0,0,0,25.15,26.35v0c.9.19,1.81.35,2.74.46a30.24,30.24,0,0,0,3.92.26,32.65,32.65,0,0,0,7.43-.86,33.31,33.31,0,0,0,5.07-1.64A32.31,32.31,0,0,0,137.73,21.85ZM119.07,61.21A29,29,0,0,1,103.21,63a30.68,30.68,0,0,1-3.41-.8v0A29,29,0,0,1,79.68,41.13h0c-.06-.26-.14-.52-.19-.78a29.17,29.17,0,0,1-.63-5.89v-.13c0-.35,0-.68.06-1a29.07,29.07,0,1,1,40.17,27.9Z" fill="#c8d655"/><path id="Path_40-2" data-name="Path 40-2" d="M59.94,58.49C48,58.49,38.48,68.61,38.48,81.28S48,104.91,59.94,104.91s21.48-11,21.48-23.63S71.87,58.49,59.94,58.49Z" fill="none" stroke="#c8d655" stroke-miterlimit="10" stroke-width="6"/></g></svg>