<svg id="Warstwa_1" data-name="Warstwa 1" xmlns="http://www.w3.org/2000/svg" viewBox="0 0 130.55 161.87"><g id="Group_53" data-name="Group 53"><g id="Group_50" data-name="Group 50"><g id="Group_48" data-name="Group 48"><g id="Group_46" data-name="Group 46"><path id="Path_26" data-name="Path 26" d="M50.85,39.15h-.5a41.5,41.5,0,0,0,0,83h0a41.5,41.5,0,0,0,37.8-58.63,30.72,30.72,0,0,1-37-22.83c-.12-.51-.23-1-.32-1.53Z" fill="none"/><rect id="Rectangle_19" data-name="Rectangle 19" x="97.12" y="113.83" width="11.22" height="38.86" transform="translate(-64.09 111.3) rotate(-44.87)" fill="none"/><path id="Path_27" data-name="Path 27" d="M93,108.8,87.8,114,85,111.19A46.66,46.66,0,0,0,93,62a30.26,30.26,0,0,1-4.83,1.57,41.5,41.5,0,0,1-37.81,58.63h0a41.51,41.51,0,0,1,0-83l.51,0a32.16,32.16,0,0,1-.51-5.54,46.65,46.65,0,1,0,31.31,81l2.77,2.77-6.1,6,34.12,34.29,14.7-14.6Zm-8,14.65,8-7.92,27.42,27.55-8,7.91Z" fill="#c8d655" stroke="#c8d655" stroke-width="0.5"/></g></g><g id="Group_52" data-name="Group 52"><path id="Path_28" data-name="Path 28" d="M80.44,2.87A30.73,30.73,0,0,0,49.7,33.6v0A30.73,30.73,0,0,0,80.44,64.34a31.16,31.16,0,0,0,7.06-.82A30.26,30.26,0,0,0,92.33,62,30.74,30.74,0,0,0,80.44,2.87ZM91,59.19A27.73,27.73,0,0,1,53.33,39.33a28.47,28.47,0,0,1-.59-5.6V33.6A27.7,27.7,0,1,1,91,59.19Z" fill="#c8d655" stroke="#c8d655" stroke-width="0.5"/><g id="Group_51" data-name="Group 51"><rect id="Rectangle_20" data-name="Rectangle 20" x="67.19" y="31.83" width="1.64" height="3.33" fill="#c8d655" stroke="#c8d655" stroke-miterlimit="10" stroke-width="0.5"/><path id="Path_29" data-name="Path 29" d="M68.83,22h2.72V20.35H67.19v4.36h1.64Z" fill="#c8d655" stroke="#c8d655" stroke-miterlimit="10" stroke-width="0.5"/><rect id="Rectangle_21" data-name="Rectangle 21" x="67.19" y="26.61" width="1.64" height="3.33" fill="#c8d655" stroke="#c8d655" stroke-miterlimit="10" stroke-width="0.5"/><path id="Path_30" data-name="Path 30" d="M68.83,45V42.28H67.18v4.36h4.36V45Z" fill="#c8d655" stroke="#c8d655" stroke-miterlimit="10" stroke-width="0.5"/><rect id="Rectangle_22" data-name="Rectangle 22" x="67.19" y="37.05" width="1.64" height="3.33" fill="#c8d655" stroke="#c8d655" stroke-miterlimit="10" stroke-width="0.5"/><rect id="Rectangle_23" data-name="Rectangle 23" x="78.66" y="20.35" width="3.33" height="1.64" fill="#c8d655" stroke="#c8d655" stroke-miterlimit="10" stroke-width="0.5"/><path id="Path_31" data-name="Path 31" d="M91.83,22v2.72h1.64V20.35H89.11V22Z" fill="#c8d655" stroke="#c8d655" stroke-miterlimit="10" stroke-width="0.5"/><rect id="Rectangle_24" data-name="Rectangle 24" x="83.89" y="20.35" width="3.33" height="1.64" fill="#c8d655" stroke="#c8d655" stroke-miterlimit="10" stroke-width="0.5"/><rect id="Rectangle_25" data-name="Rectangle 25" x="73.44" y="20.35" width="3.33" height="1.64" fill="#c8d655" stroke="#c8d655" stroke-miterlimit="10" stroke-width="0.5"/><rect id="Rectangle_26" data-name="Rectangle 26" x="73.44" y="44.99" width="3.33" height="1.64" fill="#c8d655" stroke="#c8d655" stroke-miterlimit="10" stroke-width="0.5"/><rect id="Rectangle_27" data-name="Rectangle 27" x="91.83" y="37.05" width="1.64" height="3.33" fill="#c8d655" stroke="#c8d655" stroke-miterlimit="10" stroke-width="0.5"/><rect id="Rectangle_28" data-name="Rectangle 28" x="91.83" y="31.83" width="1.64" height="3.33" fill="#c8d655" stroke="#c8d655" stroke-miterlimit="10" stroke-width="0.5"/><path id="Path_32" data-name="Path 32" d="M91.83,45H89.11v1.65h4.36V42.28H91.82Z" fill="#c8d655" stroke="#c8d655" stroke-miterlimit="10" stroke-width="0.5"/><rect id="Rectangle_29" data-name="Rectangle 29" x="83.89" y="44.99" width="3.33" height="1.64" fill="#c8d655" stroke="#c8d655" stroke-miterlimit="10" stroke-width="0.5"/><rect id="Rectangle_30" data-name="Rectangle 30" x="91.83" y="26.61" width="1.64" height="3.33" fill="#c8d655" stroke="#c8d655" stroke-miterlimit="10" stroke-width="0.5"/><rect id="Rectangle_31" data-name="Rectangle 31" x="78.66" y="44.99" width="3.33" height="1.64" fill="#c8d655" stroke="#c8d655" stroke-miterlimit="10" stroke-width="0.5"/></g></g></g></g></svg>