<svg id="Warstwa_1" data-name="Warstwa 1" xmlns="http://www.w3.org/2000/svg" viewBox="0 0 145.27 161.87"><g id="Group_79" data-name="Group 79"><g id="Group_77" data-name="Group 77"><g id="Group_76" data-name="Group 76"><path id="Path_54" data-name="Path 54" d="M111.44,2.94A31.37,31.37,0,0,0,81.75,24.25c-.16.48-.3,1-.44,1.47-21.13-.09-45.84-.26-52.62-.09-12.08.3-16.11,12.71-16.11,18.31v77.55l7.16-8.75s-.59-55.63-.59-64.89c0-14.17,5.14-15.59,14.23-15.73s30.76,0,46.81.07c0,.44-.07.88-.08,1.34,0,.26,0,.51,0,.78a31.36,31.36,0,0,0,31.37,31.36,31,31,0,0,0,4.61-.38c.91-.13,1.82-.31,2.7-.52.12,21.61-.1,65-.11,65.08a13.77,13.77,0,0,1-12.38,11.08H49l-10.48,6.52s53.55-.16,68.46,0c8.08.08,11.39-4,15.08-9.13a15.5,15.5,0,0,0,2.69-10.44c0-10.73.14-44,.11-65.27.56-.26,1.12-.51,1.66-.81a31.37,31.37,0,0,0-15.1-58.86ZM126,57.32a27.21,27.21,0,0,1-41.8-23h0c0-.25,0-.49,0-.73A27.24,27.24,0,1,1,126,57.31Z" fill="#c8d655"/><path id="Path_55" data-name="Path 55" d="M74,122.24v-36H37.64l14,14.42L3,149.69l7.23,7.23,49-49Z" fill="#c8d655"/></g></g><g id="Group_78" data-name="Group 78"><path id="Path_56" data-name="Path 56" d="M121.25,23.11H101.62a11.2,11.2,0,0,0-11.21,11.2h0a11.2,11.2,0,0,0,11.2,11.2h19.64a11.19,11.19,0,0,0,11.2-11.2h0a11.19,11.19,0,0,0-11.2-11.2Zm7,11.48a7.54,7.54,0,0,1-7.53,7.54H102.19a7.55,7.55,0,0,1-7.54-7.54V34a7.55,7.55,0,0,1,7.54-7.54h18.49A7.54,7.54,0,0,1,128.21,34Z" fill="#c8d655"/><circle id="Ellipse_8" data-name="Ellipse 8" cx="102.85" cy="34.31" r="6.15" fill="#c8d655"/></g></g></svg>