<svg id="Warstwa_1" data-name="Warstwa 1" xmlns="http://www.w3.org/2000/svg" viewBox="0 0 175.21 161.87"><g id="Group_91" data-name="Group 91"><g id="Group_88" data-name="Group 88"><g id="Group_86" data-name="Group 86"><path id="Path_62" data-name="Path 62" d="M122.33,44a1.14,1.14,0,0,1,1.55.46h0a15.67,15.67,0,0,0,28.42-1.74l-3,1.82a1.15,1.15,0,0,1-1.2-2l4.79-2.91a2.17,2.17,0,0,1,3.36,1.39l1,5.41a1.15,1.15,0,0,1-.91,1.34h0l-.22,0A1.16,1.16,0,0,1,155,46.9l-.63-3.29a17.93,17.93,0,0,1-4.5,6.61A18.28,18.28,0,0,1,137.55,55a16.75,16.75,0,0,1-3.38-.32,18.2,18.2,0,0,1-12.32-9.13,1.14,1.14,0,0,1,.48-1.55Z" fill="#c8d655" stroke="#c8d655" stroke-miterlimit="10"/></g><g id="Group_87" data-name="Group 87"><path id="Path_63" data-name="Path 63" d="M154,31.71a1.14,1.14,0,0,1-1.54-.46A15.66,15.66,0,0,0,124.08,33l3-1.82a1.15,1.15,0,0,1,1.2,2h0L123.48,36a2.18,2.18,0,0,1-2,.22,2.2,2.2,0,0,1-1.32-1.62l-1-5.4A1.14,1.14,0,0,1,120,27.9a.82.82,0,0,1,.22,0,1.14,1.14,0,0,1,1.13.93L122,32.1a17.79,17.79,0,0,1,4.51-6.62,18.28,18.28,0,0,1,12.34-4.78,17.52,17.52,0,0,1,3.38.33,18.17,18.17,0,0,1,12.32,9.13,1.14,1.14,0,0,1-.48,1.55Z" fill="#c8d655" stroke="#c8d655" stroke-miterlimit="10"/></g></g><g id="Group_90" data-name="Group 90"><g id="Group_89" data-name="Group 89"><path id="Path_64" data-name="Path 64" d="M138.19,4.14a33.86,33.86,0,0,0-32.51,24.44l-47.43-.31H26.83A22.37,22.37,0,0,0,4.53,50.61v62.24a22.32,22.32,0,0,0,22.3,22.31h8l-11,16.35a3.81,3.81,0,0,0,.36,4.68,3.71,3.71,0,0,0,2.76,1.2,4.1,4.1,0,0,0,1.88-.48L67.16,135.2h61.2a22.32,22.32,0,0,0,22.31-22.31V96.34s0-6.83,0-19.14V69.46a33.86,33.86,0,0,0-12.5-65.32Zm6.69,89.25v19.46a16.5,16.5,0,0,1-16.51,16.47h-62a3,3,0,0,0-1.44.36L33.55,147.47l9.16-13.66a3,3,0,0,0,.15-3,2.88,2.88,0,0,0-2.55-1.56H26.84a16.51,16.51,0,0,1-16.51-16.51V50.62A16.52,16.52,0,0,1,26.84,34.11h77.72a36.47,36.47,0,0,0-.24,3.91,33.86,33.86,0,0,0,33.87,33.86h0a34.26,34.26,0,0,0,6.69-.66Zm5.81-27.57a30.48,30.48,0,0,1-43-27.81,31.68,31.68,0,0,1,.28-3.9,29.74,29.74,0,0,1,1.22-5.52,30.51,30.51,0,1,1,41.52,37.23Z" fill="#c8d655"/></g></g></g></svg>