<svg id="Layer_1" data-name="Layer 1" xmlns="http://www.w3.org/2000/svg" viewBox="0 0 300 128.6">
  <g>
    <path d="M23.3,41.4,0,65.1l63.8,63.5L97.4,95V41.4Z" fill="#19508d"/>
    <polygon points="109.7 41.4 109.7 68.2 109.7 94.9 113.6 94.9 117.4 94.9 117.4 85.6 117.4 75.2 127.7 65 117.4 54.6 117.4 54.1 117.4 50 127.3 50 137.1 50 137.1 45.7 137.1 41.4 123.4 41.4 109.7 41.4" fill="#19508d"/>
    <polygon points="142 41.4 142 68.2 142 94.9 145.8 94.9 150.3 94.9 150.3 68.1 150.3 41.4 145.8 41.4 142 41.4" fill="#19508d"/>
    <polygon points="284.1 41.4 268.2 41.4 268.2 45.7 268.2 50 274.1 50 280 50 280 72.4 280 94.9 284 94.9 287.9 94.9 287.9 72.4 287.9 50 293.9 50 300 50 300 45.7 300 41.4 284.1 41.4" fill="#19508d"/>
    <path d="M93.1,29.3S64,0,63.8,0L34.5,29.3H93.1Z" fill="#19508d"/>
    <path d="M226.8,68.2a11.7,11.7,0,0,0-3.9-2.4l-2.9-1L214.9,63a7.6,7.6,0,0,1-4.9-7.1,1.9,1.9,0,0,1,.1-.8,7.1,7.1,0,0,1,1.9-4.4,7.3,7.3,0,0,1,5.4-2.4,7.5,7.5,0,0,1,5.5,2.5.2.2,0,0,0,.2.2c0,.1,0,.1.1.2a9.3,9.3,0,0,1,1.4,2.9v.3l.2,1,7.4-1.7a15.1,15.1,0,0,0-14.9-12.9c-8.1,0-15.1,7-15.1,15.5a15.2,15.2,0,0,0,5.1,11.3l1.6,1.2a32.9,32.9,0,0,0,8.4,3.4c4,.8,7.4,3.4,7.4,7.6V80h0a7.4,7.4,0,0,1-7.4,7.3h0a7.3,7.3,0,0,1-7.2-5.9l-.2-1-.2-1-7.5,1.6c.6,8.1,7.3,14.5,15.1,14.5s15.1-7,15.1-15.5a15.8,15.8,0,0,0-5.7-11.9" fill="#19508d"/>
    <path d="M261.2,68.2a11.7,11.7,0,0,0-3.9-2.4l-2.8-1L249.3,63a7.6,7.6,0,0,1-4.9-7.1c0-.3.1-.6.1-.8a6.7,6.7,0,0,1,2-4.4,7,7,0,0,1,5.3-2.4,7.5,7.5,0,0,1,5.5,2.5c.1.1.1.2.2.2s0,.1.1.2a9.3,9.3,0,0,1,1.4,2.9v.3l.2,1,7.4-1.7a15.1,15.1,0,0,0-14.9-12.9c-8.1,0-15.1,7-15.1,15.5a15.2,15.2,0,0,0,5.1,11.3l1.6,1.2a32.9,32.9,0,0,0,8.4,3.4c4,.8,7.4,3.4,7.4,7.6V80h0a7.3,7.3,0,0,1-7.3,7.3h-.1a7.3,7.3,0,0,1-7.2-5.9l-.2-1-.2-1-7.5,1.6c.6,8.1,7.3,14.5,15.1,14.5s15.1-7,15.1-15.5a15.8,15.8,0,0,0-5.7-11.9" fill="#19508d"/>
    <path d="M178.6,68.2a11.7,11.7,0,0,0-3.9-2.4l-2.8-1L166.7,63a7.6,7.6,0,0,1-4.9-7.1c0-.3.1-.6.1-.8a7.2,7.2,0,0,1,2-4.4,7,7,0,0,1,5.3-2.4,7.5,7.5,0,0,1,5.5,2.5l.2.2c0,.1.1.1.1.2a9.3,9.3,0,0,1,1.4,2.9v.3l.2,1,7.4-1.7a15.1,15.1,0,0,0-14.9-12.9c-8.1,0-15.1,7-15.1,15.5a15.2,15.2,0,0,0,5.1,11.3l1.6,1.2a32.9,32.9,0,0,0,8.4,3.4c4,.8,7.4,3.4,7.4,7.6V80h0a7.3,7.3,0,0,1-7.3,7.3h-.1a7.3,7.3,0,0,1-7.2-5.9l-.2-1-.2-1-7.5,1.6c.6,8.1,7.4,14.5,15.1,14.5a15.4,15.4,0,0,0,15.1-15.5,15.8,15.8,0,0,0-5.7-11.9" fill="#19508d"/>
    <rect x="187.7" y="65.1" width="12.2" height="7.86" fill="#19508d"/>
  </g>
</svg>
