<svg id="Warstwa_1" data-name="Warstwa 1" xmlns="http://www.w3.org/2000/svg" viewBox="0 0 143.24 161.87"><path id="Union_5" data-name="Union 5" d="M105.22,49.58V35.69H91.33V31.06h13.89V17.16h4.64v13.9h13.89v4.63H109.86V49.58Z" fill="#c8d655"/><g id="Group_60" data-name="Group 60"><path id="Path_38" data-name="Path 38" d="M76.57,39.52a41.51,41.51,0,0,0-6-2L67.23,27.3H53.6L50.22,37.57a43.12,43.12,0,0,0-13,5.49l-9.85-4.74-9.55,9.55,5,10a45.26,45.26,0,0,0-5.19,12.75L7,73.84v14.3l10.9,3.2c6.7,25,34.46,64.16,42.47,64.16,8.36,0,35.76-39.19,42.47-64.15l10.9-3.21V73.84l-10.6-3.22a47,47,0,0,0-1.44-4.74A32.27,32.27,0,0,1,76.57,39.52ZM60.41,104.91c-11.92,0-21.46-11-21.46-23.64s9.54-22.78,21.46-22.78S81.89,68.62,81.89,81.27s-9.55,23.64-21.48,23.64Z" fill="none" stroke="#c8d655" stroke-miterlimit="10" stroke-width="6"/><path d="M138.2,21.85v0a32.27,32.27,0,0,0-61.94,10.1c-.06.8-.12,1.58-.12,2.39v0a33.32,33.32,0,0,0,.43,5.18h0a32.26,32.26,0,0,0,25.15,26.35v0c.9.19,1.81.35,2.74.46a30.24,30.24,0,0,0,3.92.26,32.65,32.65,0,0,0,7.43-.86,33.31,33.31,0,0,0,5.07-1.64A32.3,32.3,0,0,0,138.2,21.85ZM119.54,61.21A29,29,0,0,1,103.68,63a30.68,30.68,0,0,1-3.41-.8v0A29,29,0,0,1,80.15,41.13h0c-.06-.26-.14-.52-.19-.78a29.17,29.17,0,0,1-.63-5.89v-.13c0-.35,0-.68.06-1a29.07,29.07,0,1,1,40.17,27.9Z" fill="#c8d655"/><path id="Path_40" data-name="Path 40" d="M60.41,58.49C48.49,58.49,39,68.61,39,81.28s9.54,23.63,21.46,23.63,21.48-11,21.48-23.63S72.34,58.49,60.41,58.49Z" fill="none" stroke="#c8d655" stroke-miterlimit="10" stroke-width="6"/></g></svg>