<svg id="Warstwa_1" data-name="Warstwa 1" xmlns="http://www.w3.org/2000/svg" viewBox="0 0 170.72 159.83"><g id="Group_102" data-name="Group 102"><rect id="Rectangle_39" data-name="Rectangle 39" x="131.98" y="23.1" width="4.24" height="25.47" fill="#c8d655"/><rect id="Rectangle_38" data-name="Rectangle 38" x="121.37" y="33.71" width="25.47" height="4.24" fill="#c8d655"/></g><g id="Group_96" data-name="Group 96"><path id="Path_67-2" data-name="Path 67-2" d="M133.23,7a28.33,28.33,0,0,0,0,56.65,28.42,28.42,0,0,0,28.33-28.33A28.32,28.32,0,0,0,133.23,7Z" fill="none" stroke="#c8d655" stroke-miterlimit="10" stroke-width="6"/><path id="Path_68-2" data-name="Path 68-2" d="M108.31,54.42H8.89v91.84a5.93,5.93,0,0,0,5.92,5.93H139.25a5.93,5.93,0,0,0,5.93-5.93h0V64.39a31.37,31.37,0,0,1-36.87-10Z" fill="none" stroke="#c8d655" stroke-miterlimit="10" stroke-width="6"/><path id="Path_69-2" data-name="Path 69-2" d="M101.79,35.31a32.16,32.16,0,0,1,.37-4.59H14.8a5.93,5.93,0,0,0-5.93,5.92h0V54.42h99.44A31.23,31.23,0,0,1,101.79,35.31Z" fill="none" stroke="#c8d655" stroke-miterlimit="10" stroke-width="6"/><path id="Path_70-2" data-name="Path 70-2" d="M133.23,3.88a31.41,31.41,0,0,0-31.07,26.84,32.16,32.16,0,0,0-.37,4.59A31.44,31.44,0,1,0,133.23,3.88ZM145.17,61a28.31,28.31,0,1,1,16.39-25.66h0A28.32,28.32,0,0,1,145.17,61Z" fill="#c8d655"/></g><path d="M78.67,87l5.16,10.45a1.82,1.82,0,0,0,1.37,1l11.53,1.67a1.83,1.83,0,0,1,1,3.12l-8.34,8.13a1.82,1.82,0,0,0-.53,1.61l2,11.48a1.83,1.83,0,0,1-2.65,1.93L77.88,121a1.83,1.83,0,0,0-1.7,0L65.87,126.4a1.83,1.83,0,0,1-2.65-1.93l2-11.48a1.82,1.82,0,0,0-.52-1.61l-8.34-8.13a1.83,1.83,0,0,1,1-3.12l11.53-1.67a1.84,1.84,0,0,0,1.37-1L75.4,87A1.83,1.83,0,0,1,78.67,87Z" fill="none" stroke="#c8d655" stroke-miterlimit="10" stroke-width="6"/><rect x="16.62" y="64.73" width="4.6" height="10.45" rx="2.3" fill="#c8d655"/><rect x="27.86" y="64.73" width="4.6" height="10.45" rx="2.3" fill="#c8d655"/><rect x="38.84" y="64.73" width="4.6" height="10.45" rx="2.3" fill="#c8d655"/><rect x="49.69" y="64.73" width="4.6" height="10.45" rx="2.3" fill="#c8d655"/><rect x="60.67" y="64.73" width="4.6" height="10.45" rx="2.3" fill="#c8d655"/><rect x="72.79" y="64.73" width="4.6" height="10.45" rx="2.3" fill="#c8d655"/><rect x="84.67" y="64.73" width="4.6" height="10.45" rx="2.3" fill="#c8d655"/><rect x="96.67" y="64.73" width="4.6" height="10.45" rx="2.3" fill="#c8d655"/><rect x="108.67" y="64.73" width="4.6" height="10.45" rx="2.3" fill="#c8d655"/><rect x="120.92" y="64.73" width="4.6" height="10.45" rx="2.3" fill="#c8d655"/><rect x="132.27" y="64.73" width="4.6" height="10.45" rx="2.3" fill="#c8d655"/></svg>