<svg id="Warstwa_1" data-name="Warstwa 1" xmlns="http://www.w3.org/2000/svg" viewBox="0 0 175.21 161.87"><g id="Group_102" data-name="Group 102"><rect id="Rectangle_39" data-name="Rectangle 39" x="134.81" y="23.23" width="4.24" height="25.47" fill="#c8d655"/><rect id="Rectangle_38" data-name="Rectangle 38" x="124.2" y="33.84" width="25.47" height="4.24" fill="#c8d655"/></g><g id="Group_105" data-name="Group 105"><g id="Group_101" data-name="Group 101"><g id="Group_96" data-name="Group 96"><path id="Path_67-2" data-name="Path 67-2" d="M137.06,7.11a28.31,28.31,0,1,0,28.33,28.33A28.32,28.32,0,0,0,137.06,7.11Z" fill="none" stroke="#c8d655" stroke-miterlimit="10" stroke-width="6"/><path id="Path_68-2" data-name="Path 68-2" d="M112.14,54.55H12.72v91.84a5.92,5.92,0,0,0,5.93,5.92H143.08a5.93,5.93,0,0,0,5.93-5.92h0V64.52a31.37,31.37,0,0,1-36.87-10Z" fill="none" stroke="#c8d655" stroke-miterlimit="10" stroke-width="6"/><path id="Path_69-2" data-name="Path 69-2" d="M105.62,35.44a32.19,32.19,0,0,1,.38-4.6H18.63a5.93,5.93,0,0,0-5.92,5.93h0V54.54h99.43A31.22,31.22,0,0,1,105.62,35.44Z" fill="none" stroke="#c8d655" stroke-miterlimit="10" stroke-width="6"/><path id="Path_70-2" data-name="Path 70-2" d="M137.06,4A31.4,31.4,0,0,0,106,30.84a30.8,30.8,0,0,0-.38,4.6A31.44,31.44,0,1,0,137.06,4ZM149,61.1a28.18,28.18,0,0,1-39.86-30.25,28.31,28.31,0,0,1,56.25,4.59h0A28.31,28.31,0,0,1,149,61.1Z" fill="#c8d655"/></g><g id="Group_99" data-name="Group 99"><path id="Path_12-2" data-name="Path 12-2" d="M102.79,95.76c0-13.86-10.54-25-23.6-25a24.65,24.65,0,0,0-24,25s-1.28,20.58,20.64,39.36a4.39,4.39,0,0,0,6.2.12l.12-.12c21.91-18.78,20.65-39.36,20.65-39.36Z" fill="none" stroke="#c8d655" stroke-miterlimit="10" stroke-width="6"/><path id="Path_13-2" data-name="Path 13-2" d="M90.57,94.87c0,6.7-5.06,12.52-11.38,12.52s-11.37-5.82-11.37-12.52a11.4,11.4,0,1,1,22.75-1.4,10.9,10.9,0,0,1,0,1.4Z" fill="none" stroke="#c8d655" stroke-miterlimit="10" stroke-width="6"/></g></g></g></svg>