<svg id="Warstwa_1" data-name="Warstwa 1" xmlns="http://www.w3.org/2000/svg" viewBox="0 0 135.48 161.87"><g id="Group_54" data-name="Group 54"><path id="Path_33" data-name="Path 33" d="M67.94,34.34v0c0-.8.07-1.59.12-2.37A42.21,42.21,0,0,0,52.79,29.1C28.15,29.1,7.46,50.21,7.46,76.37c0,0-2.37,38.83,39,74.28,4,3.38,8.74,3.38,11.92,0,41.35-35.44,39-74.28,39-74.28h0a50.29,50.29,0,0,0-1-10A32.27,32.27,0,0,1,67.94,34.34Zm-15.17,64c-11.92,0-21.46-11-21.46-23.64s9.54-22.79,21.46-22.79S74.25,62,74.25,74.67,64.7,98.31,52.77,98.31Z" fill="none" stroke="#c8d655" stroke-miterlimit="10" stroke-width="6"/><path id="Path_34" data-name="Path 34" d="M52.77,51.89C40.85,51.89,31.31,62,31.31,74.68s9.54,23.63,21.46,23.63,21.48-11,21.48-23.63S64.7,51.89,52.77,51.89Z" fill="none" stroke="#c8d655" stroke-miterlimit="10" stroke-width="6"/><path d="M130,21.85v0A32.27,32.27,0,0,0,68.06,31.94c1.07.41,2.11.86,3.13,1.36a29.07,29.07,0,0,1,58.13,1h0a29.08,29.08,0,0,1-17.95,26.87,27.81,27.81,0,0,1-5.19,1.6A28.84,28.84,0,0,1,95.5,63v0s0,0,0,0A29.07,29.07,0,0,1,71.75,40.35a29.9,29.9,0,0,1-.62-5.89v-.13c0-.35,0-.68.05-1-1-.5-2.06-1-3.12-1.37-.06.79-.12,1.58-.12,2.38h0a32.27,32.27,0,0,0,28.35,32v0s0,0,0,.06a32.15,32.15,0,0,0,3.93.26A32.26,32.26,0,0,0,130,21.85Z" fill="#c8d655"/></g><path id="Union_4" data-name="Union 4" d="M97,49.58V35.68H83.08V31.06H97V17.16h4.63v13.9h13.89v4.62H101.6v13.9Z" fill="#c8d655"/></svg>