<svg id="Warstwa_1" data-name="Warstwa 1" xmlns="http://www.w3.org/2000/svg" viewBox="0 0 145.27 161.87"><g id="Group_69" data-name="Group 69"><g id="Group_67" data-name="Group 67"><path id="Path_41" data-name="Path 41" d="M28.39,26.63c-12.08.3-16.11,12.72-16.11,18.31V122.5l7.16-8.76s-.59-55.63-.59-64.88c0-14.17,5.14-15.6,14.23-15.74,9.36-.14,31.43,0,47.56.08a15.6,15.6,0,0,1,.75-6.47C60.17,26.64,35.22,26.47,28.39,26.63Z" fill="#c8d655"/><path id="Path_42" data-name="Path 42" d="M118.35,130.86A13.77,13.77,0,0,1,106,141.94H48.72l-10.48,6.52s53.55-.15,68.46,0c8.08.08,11.38-4,15.08-9.13,2.47-3.42,2.67-6.22,2.69-10.44,0-10.84.14-44.77.11-65.94a11.26,11.26,0,0,1-6.13,2C118.57,86.25,118.35,130.79,118.35,130.86Z" fill="#c8d655"/><path id="Path_43" data-name="Path 43" d="M111.13,4a31.34,31.34,0,0,0-29.68,21.3,31,31,0,0,0-1.64,9.29c0,.26,0,.51,0,.77a31.13,31.13,0,0,0,36,31,31,31,0,0,0,10.49-3.5A31.36,31.36,0,0,0,111.13,4Zm14.55,54.38a27.11,27.11,0,0,1-10.12,3.85A27.1,27.1,0,0,1,83.88,35.31c0-.24,0-.48,0-.73a27.24,27.24,0,0,1,54.47.73h0a27.23,27.23,0,0,1-12.69,23Z" fill="#c8d655"/><path id="Path_44" data-name="Path 44" d="M73.66,123.24v-36H37.34l14,14.43L2.74,150.69,10,157.92l49-49Z" fill="#c8d655"/></g><g id="Group_68" data-name="Group 68"><path id="Path_45" data-name="Path 45" d="M110,45.92a2.76,2.76,0,0,0-5-1.19h0a11.28,11.28,0,0,1-2.61,2.41,3,3,0,0,1-2.57-.6A2.83,2.83,0,0,1,98.46,44a6.59,6.59,0,0,1,1.94-3l4.92-5.09s1.17-1.16,1.58-1.54a1.68,1.68,0,0,1,2-.27c.93.56,1.7,1.4,2.92,1.13A2.79,2.79,0,0,0,114,32.45a2.72,2.72,0,0,0-.56-1.6h0a2.72,2.72,0,0,0-1.22-.92,17.9,17.9,0,0,0-2.51-1.27c-2.87-1.21-6.21,1-7.51,2.44l-.09.1.09-.1S97,36.63,94.29,39.9s-.56,7.89-.08,8.72a10.68,10.68,0,0,0,5.35,3.75A7.11,7.11,0,0,0,106.41,51l.65-.63,2.1-2h0A2.79,2.79,0,0,0,110,45.92Zm-8-14.49h0Zm-.29.32,0,.06Z" fill="#c8d655"/><path id="Path_46" data-name="Path 46" d="M125.82,22.78A10.7,10.7,0,0,0,120.48,19a7.1,7.1,0,0,0-6.85,1.38L113,21l-2.1,2.05h0a2.73,2.73,0,0,0-.8,2.39,2.76,2.76,0,0,0,5,1.19h0a11.25,11.25,0,0,1,2.6-2.41,3.06,3.06,0,0,1,2.58.6,2.85,2.85,0,0,1,1.36,2.6,6.69,6.69,0,0,1-2,3l-4.91,5.09-1.58,1.54a1.65,1.65,0,0,1-2,.27c-.94-.55-1.7-1.4-2.93-1.13A2.79,2.79,0,0,0,106,39a2.74,2.74,0,0,0,.55,1.61h0a2.81,2.81,0,0,0,1.22.91,18.58,18.58,0,0,0,2.52,1.27c2.86,1.22,6.2-1,7.5-2.43l.1-.11-.1.11s5.26-5.54,7.94-8.8S126.3,23.61,125.82,22.78ZM118.11,40h0Zm.23-.27.11-.12Z" fill="#c8d655"/></g></g></svg>