<svg id="Warstwa_1" data-name="Warstwa 1" xmlns="http://www.w3.org/2000/svg" viewBox="0 0 135.48 134.3"><path id="Path_9" data-name="Path 9" d="M117.23,78.74,105,32.15A14.68,14.68,0,1,0,82.35,19.84c0,.32,0,.62,0,.93L39.72,41.37A14.68,14.68,0,1,0,22.86,64.62L17,99.88a14.68,14.68,0,1,0,16.17,17l69.21-15.93a14.68,14.68,0,1,0,14.86-22.17ZM97,9.69A10.16,10.16,0,1,1,86.86,19.85,10.16,10.16,0,0,1,97,9.69ZM18.69,51.23A10.16,10.16,0,1,1,28.85,61.39h0A10.16,10.16,0,0,1,18.69,51.23Zm0,73.37a10.16,10.16,0,1,1,10.16-10.16h0a10.16,10.16,0,0,1-10.16,10.17h0Zm81.5-31.38v.31L32.37,109.16A14.74,14.74,0,0,0,24.59,101l5.85-35.18a14.68,14.68,0,0,0,13-16.19,13.55,13.55,0,0,0-.23-1.42L84.89,28.1A14.62,14.62,0,0,0,97,34.53h.68l11.8,45a14.66,14.66,0,0,0-9.32,13.65Zm14.68,10.16A10.16,10.16,0,1,1,125,93.22h0a10.16,10.16,0,0,1-10.16,10.16h0Z" fill="#5b8"/></svg>