<svg id="Warstwa_1" data-name="Warstwa 1" xmlns="http://www.w3.org/2000/svg" viewBox="0 0 175.21 161.87"><g id="Group_104" data-name="Group 104"><g id="Group_103" data-name="Group 103"><rect id="Rectangle_38-2" data-name="Rectangle 38-2" x="122.55" y="34.49" width="25.47" height="4.24" fill="#c8d655"/></g><g id="Group_100" data-name="Group 100"><g id="Group_97" data-name="Group 97"><path id="Path_67" data-name="Path 67" d="M136.42,7.89a28.31,28.31,0,1,0,28.33,28.33A28.32,28.32,0,0,0,136.42,7.89Z" fill="none" stroke="#c8d655" stroke-miterlimit="10" stroke-width="6"/><path id="Path_68" data-name="Path 68" d="M111.49,55.33H12.08v91.84A5.92,5.92,0,0,0,18,153.09H142.44a5.92,5.92,0,0,0,5.92-5.92h0V65.3a31.37,31.37,0,0,1-36.87-10Z" fill="none" stroke="#c8d655" stroke-miterlimit="10" stroke-width="6"/><path id="Path_69" data-name="Path 69" d="M105,36.22a30.79,30.79,0,0,1,.37-4.6H18a5.94,5.94,0,0,0-5.93,5.93h0V55.32h99.43A31.28,31.28,0,0,1,105,36.22Z" fill="none" stroke="#c8d655" stroke-miterlimit="10" stroke-width="6"/><path id="Path_70" data-name="Path 70" d="M136.42,4.78a31.42,31.42,0,0,0-31.07,26.84,30.79,30.79,0,0,0-.37,4.6A31.44,31.44,0,1,0,136.42,4.78Zm11.94,57.1a28.34,28.34,0,0,1-40.27-25.66,29.43,29.43,0,0,1,.4-4.59,28.32,28.32,0,0,1,56.26,4.59h0a28.33,28.33,0,0,1-16.39,25.66Z" fill="#c8d655"/></g><g id="Group_98" data-name="Group 98"><path id="Path_12" data-name="Path 12" d="M104.26,96.54c0-13.86-10.53-25-23.59-25a24.66,24.66,0,0,0-24,25S55.38,117.11,77.3,135.9a4.39,4.39,0,0,0,6.2.12l.12-.12c21.91-18.78,20.65-39.36,20.65-39.36Z" fill="none" stroke="#c8d655" stroke-miterlimit="10" stroke-width="6"/><path id="Path_13" data-name="Path 13" d="M92.05,95.65c0,6.7-5.06,12.52-11.38,12.52S69.3,102.35,69.3,95.65a11.4,11.4,0,1,1,22.75-1.4c0,.47,0,.93,0,1.4Z" fill="none" stroke="#c8d655" stroke-miterlimit="10" stroke-width="6"/></g></g></g></svg>