<svg id="Warstwa_1" data-name="Warstwa 1" xmlns="http://www.w3.org/2000/svg" viewBox="0 0 172.09 159.83"><g id="Group_104" data-name="Group 104"><g id="Group_103" data-name="Group 103"><rect id="Rectangle_38-2" data-name="Rectangle 38-2" x="120.15" y="34.37" width="25.47" height="4.24" fill="#c8d655"/></g><g id="Group_100" data-name="Group 100"><g id="Group_97" data-name="Group 97"><path id="Path_67" data-name="Path 67" d="M134,7.77a28.33,28.33,0,0,0,0,56.65,28.42,28.42,0,0,0,28.33-28.33A28.33,28.33,0,0,0,134,7.77Z" fill="none" stroke="#c8d655" stroke-miterlimit="10" stroke-width="6"/><path id="Path_68" data-name="Path 68" d="M109.08,55.2H9.67V147A5.93,5.93,0,0,0,15.59,153H140A5.94,5.94,0,0,0,146,147h0V65.17a31.39,31.39,0,0,1-36.88-10Z" fill="none" stroke="#c8d655" stroke-miterlimit="10" stroke-width="6"/><path id="Path_69" data-name="Path 69" d="M102.57,36.09a32.16,32.16,0,0,1,.37-4.59H15.58a5.93,5.93,0,0,0-5.93,5.92h0V55.2h99.43A31.28,31.28,0,0,1,102.57,36.09Z" fill="none" stroke="#c8d655" stroke-miterlimit="10" stroke-width="6"/><path id="Path_70" data-name="Path 70" d="M134,4.66A31.41,31.41,0,0,0,102.94,31.5a32.16,32.16,0,0,0-.37,4.59A31.44,31.44,0,1,0,134,4.66ZM146,61.76A28.31,28.31,0,1,1,162.34,36.1h0A28.32,28.32,0,0,1,146,61.76Z" fill="#c8d655"/></g></g></g><path d="M80.45,87.79,85.6,98.24a1.84,1.84,0,0,0,1.38,1l11.53,1.67a1.83,1.83,0,0,1,1,3.12l-8.34,8.13a1.82,1.82,0,0,0-.53,1.61l2,11.48A1.83,1.83,0,0,1,90,127.18l-10.31-5.42a1.83,1.83,0,0,0-1.7,0l-10.31,5.42A1.83,1.83,0,0,1,65,125.25l2-11.48a1.82,1.82,0,0,0-.52-1.61L58.1,104a1.83,1.83,0,0,1,1-3.12l11.53-1.67a1.84,1.84,0,0,0,1.37-1l5.16-10.45A1.83,1.83,0,0,1,80.45,87.79Z" fill="none" stroke="#c8d655" stroke-miterlimit="10" stroke-width="6"/><rect x="18.68" y="64.73" width="4.6" height="10.45" rx="2.3" fill="#c8d655"/><rect x="29.91" y="64.73" width="4.6" height="10.45" rx="2.3" fill="#c8d655"/><rect x="40.89" y="64.73" width="4.6" height="10.45" rx="2.3" fill="#c8d655"/><rect x="51.74" y="64.73" width="4.6" height="10.45" rx="2.3" fill="#c8d655"/><rect x="62.72" y="64.73" width="4.6" height="10.45" rx="2.3" fill="#c8d655"/><rect x="74.85" y="64.73" width="4.6" height="10.45" rx="2.3" fill="#c8d655"/><rect x="86.72" y="64.73" width="4.6" height="10.45" rx="2.3" fill="#c8d655"/><rect x="98.72" y="64.73" width="4.6" height="10.45" rx="2.3" fill="#c8d655"/><rect x="110.72" y="64.73" width="4.6" height="10.45" rx="2.3" fill="#c8d655"/><rect x="122.97" y="64.73" width="4.6" height="10.45" rx="2.3" fill="#c8d655"/><rect x="134.32" y="64.73" width="4.6" height="10.45" rx="2.3" fill="#c8d655"/></svg>