<svg id="Warstwa_1" data-name="Warstwa 1" xmlns="http://www.w3.org/2000/svg" viewBox="0 0 175.21 161.87"><g id="Group_95" data-name="Group 95"><g id="Group_92" data-name="Group 92"><path id="Path_65" data-name="Path 65" d="M148.09,26H126.9a12.09,12.09,0,0,0-12.09,12.09h0A12.08,12.08,0,0,0,126.9,50.15h21.19a12.08,12.08,0,0,0,12.09-12.08h0A12.09,12.09,0,0,0,148.09,26Zm7.52,12.39a8.14,8.14,0,0,1-8.14,8.13h-20a8.13,8.13,0,0,1-8.14-8.13v-.61a8.13,8.13,0,0,1,8.13-8.13h20a8.15,8.15,0,0,1,8.14,8.13h0Z" fill="#c8d655"/><circle id="Ellipse_9" data-name="Ellipse 9" cx="128.23" cy="38.07" r="6.63" fill="#c8d655"/></g><g id="Group_94" data-name="Group 94"><g id="Group_93" data-name="Group 93"><path id="Path_66" data-name="Path 66" d="M137.5,4.14A33.88,33.88,0,0,0,105,28.58l-47.42-.31H26.15A22.38,22.38,0,0,0,3.84,50.61v62.24a22.32,22.32,0,0,0,22.31,22.31h8l-11,16.35a3.78,3.78,0,0,0,.36,4.67,3.67,3.67,0,0,0,2.76,1.21,4,4,0,0,0,1.87-.49l38.34-21.7h61.2A22.32,22.32,0,0,0,150,112.89V96.36s0-6.84,0-19.15V69.46A33.85,33.85,0,0,0,137.51,4.14Zm6.69,89.25v19.46a16.5,16.5,0,0,1-16.51,16.47h-62a3,3,0,0,0-1.44.36L32.86,147.47,42,133.8a3,3,0,0,0,.16-3,2.89,2.89,0,0,0-2.56-1.56H26.15A16.52,16.52,0,0,1,9.64,112.74V50.62A16.51,16.51,0,0,1,26.15,34.11h77.73A33.67,33.67,0,0,0,137.5,71.88a33.51,33.51,0,0,0,6.69-.67ZM150,65.82a30.27,30.27,0,0,1-5.81,1.94A30.44,30.44,0,0,1,107,38a29.83,29.83,0,0,1,.28-3.9A30.5,30.5,0,1,1,150,65.82Z" fill="#c8d655"/></g></g></g></svg>