<svg id="Warstwa_1" data-name="Warstwa 1" xmlns="http://www.w3.org/2000/svg" viewBox="0 0 145.27 161.87"><g id="Group_75" data-name="Group 75"><g id="Group_71" data-name="Group 71"><path id="Path_50" data-name="Path 50" d="M111.15,3A31.36,31.36,0,0,0,81.46,24.26c-.16.48-.29,1-.44,1.47-21.13-.09-45.83-.26-52.61-.09C16.32,25.93,12.3,38.35,12.3,44V121.5l7.16-8.75s-.6-55.63-.6-64.89c0-14.17,5.15-15.59,14.23-15.74s30.77,0,46.82.08c0,.44-.08.88-.09,1.34,0,.26,0,.51,0,.78a31.36,31.36,0,0,0,31.36,31.36h0a32.2,32.2,0,0,0,4.61-.37c.92-.14,1.82-.31,2.71-.52.11,21.6-.11,65-.11,65.07A13.77,13.77,0,0,1,106,140.94H48.73l-10.47,6.51s53.54-.15,68.46,0c8.08.09,11.38-4,15.07-9.12,2.48-3.43,2.68-6.22,2.7-10.44,0-10.73.14-44,.11-65.27.55-.26,1.11-.52,1.65-.81A31.37,31.37,0,0,0,111.15,3ZM125.7,57.33a27,27,0,0,1-10.13,3.84,26.25,26.25,0,0,1-4.43.4A27.25,27.25,0,0,1,83.89,34.31c0-.24,0-.48,0-.73a27.23,27.23,0,1,1,41.78,23.75Z" fill="#c8d655"/><path id="Path_51" data-name="Path 51" d="M73.68,122.24v-36H37.36l14,14.42L2.75,149.69,10,156.92l49-49Z" fill="#c8d655"/></g><g id="Group_74" data-name="Group 74"><g id="Group_72" data-name="Group 72"><path id="Path_52" data-name="Path 52" d="M96.46,40a1.07,1.07,0,0,1,1.44.44h0a14.51,14.51,0,0,0,26.33-1.61l-2.77,1.69a1.07,1.07,0,0,1-1.11-1.82l4.44-2.7a2,2,0,0,1,1.88-.21,2,2,0,0,1,1.24,1.5l1,5a1.05,1.05,0,0,1-.85,1.24h0a.65.65,0,0,1-.2,0,1.06,1.06,0,0,1-1-.86l-.58-3.05A16.67,16.67,0,0,1,122,45.78a17,17,0,0,1-11.44,4.44,15.67,15.67,0,0,1-3.13-.31A16.8,16.8,0,0,1,96,41.45,1.07,1.07,0,0,1,96.45,40Z" fill="#c8d655" stroke="#c8d655" stroke-miterlimit="10" stroke-width="0.5"/></g><g id="Group_73" data-name="Group 73"><path id="Path_53" data-name="Path 53" d="M125.84,28.62a1.06,1.06,0,0,1-1.43-.43h0a14.51,14.51,0,0,0-26.33,1.61l2.78-1.68a1.06,1.06,0,1,1,1.1,1.81l-4.43,2.7a2,2,0,0,1-3.13-1.29l-1-5a1.06,1.06,0,0,1,.85-1.24h0l.2,0a1.05,1.05,0,0,1,1,.86l.58,3a16.63,16.63,0,0,1,15.62-10.56,16.43,16.43,0,0,1,3.13.3,16.86,16.86,0,0,1,11.42,8.46,1.07,1.07,0,0,1-.42,1.45Z" fill="#c8d655" stroke="#c8d655" stroke-miterlimit="10" stroke-width="0.5"/></g></g></g></svg>