<svg id="Warstwa_1" data-name="Warstwa 1" xmlns="http://www.w3.org/2000/svg" viewBox="0 0 130.55 161.87"><g id="Group_44" data-name="Group 44"><g id="Group_43" data-name="Group 43"><path id="Path_19" data-name="Path 19" d="M52.58,39.44h-.5a41.4,41.4,0,0,0,0,82.8h0A41.4,41.4,0,0,0,89.79,63.74,30.65,30.65,0,0,1,52.91,41c-.12-.5-.23-1-.32-1.52Z" fill="none"/><rect id="Rectangle_18" data-name="Rectangle 18" x="98.74" y="113.94" width="11.2" height="38.77" transform="translate(-63.67 112.45) rotate(-44.87)" fill="none"/><path id="Path_20" data-name="Path 20" d="M94.64,108.92l-5.21,5.19-2.81-2.81a46.52,46.52,0,0,0,8-49.11,31.15,31.15,0,0,1-4.82,1.56,41.39,41.39,0,0,1-37.71,58.48h0a41.4,41.4,0,1,1-.58-82.8h1.08a31,31,0,0,1-.5-5.52,46.53,46.53,0,1,0,31.23,80.77l2.76,2.76-6.08,6,34,34.2,14.67-14.58Zm-8,14.61,7.94-7.9L122,143.11,114,151Z" fill="#c8d655" stroke="#c8d655" stroke-width="0.5"/><path id="Union_3" data-name="Union 3" d="M52.58,39.45h0a32,32,0,0,1-.51-5.53c1,0,2,0,3,.11a28.07,28.07,0,0,0,.59,5.56h0A27.65,27.65,0,0,0,88.39,61h0A27.63,27.63,0,1,0,55.11,33.9V34c-1-.06-2-.09-3-.1v0A30.67,30.67,0,1,1,94.6,62.18a29.14,29.14,0,0,1-4.82,1.56A30.64,30.64,0,0,1,52.9,41C52.78,40.46,52.68,40,52.58,39.45Zm42,22.73c-.39-.92-.82-1.85-1.29-2.75C93.77,60.34,94.21,61.26,94.6,62.18Z" fill="#c8d655" stroke="#c8d655" stroke-miterlimit="10" stroke-width="0.5"/></g><path id="Path_25" data-name="Path 25" d="M96.44,32.17H84.32V20H81.15V32.17H69v3.16H81.15V47.47h3.17V35.33H96.44Z" fill="#c8d655" stroke="#c8d655"/></g></svg>