<svg id="Warstwa_1" data-name="Warstwa 1" xmlns="http://www.w3.org/2000/svg" viewBox="0 0 130.55 161.87"><g id="Group_45" data-name="Group 45"><g id="Group_43-2" data-name="Group 43-2"><path id="Path_19-2" data-name="Path 19-2" d="M50.37,39.6l-.51,0a41.41,41.41,0,0,0,0,82.81h0A41.4,41.4,0,0,0,87.58,63.9,30.65,30.65,0,0,1,50.7,41.12c-.12-.51-.23-1-.32-1.52Z" fill="none"/><rect id="Rectangle_18-2" data-name="Rectangle 18-2" x="96.52" y="114.09" width="11.2" height="38.77" transform="translate(-64.42 110.93) rotate(-44.87)" fill="none"/><path id="Path_20-2" data-name="Path 20-2" d="M92.43,109.08l-5.21,5.19-2.81-2.81a46.53,46.53,0,0,0,8-49.12,29.14,29.14,0,0,1-4.82,1.56,41.4,41.4,0,0,1-37.71,58.49h0a41.4,41.4,0,1,1-.58-82.8h1.08a31.93,31.93,0,0,1-.51-5.52,46.53,46.53,0,1,0,31.23,80.77l2.77,2.76-6.09,6,34,34.21,14.67-14.58Zm-8,14.61,7.94-7.9,27.34,27.48-7.93,7.89Z" fill="#c8d655" stroke="#c8d655" stroke-width="0.5"/><path id="Union_3-2" data-name="Union 3-2" d="M50.37,39.61h0a31.17,31.17,0,0,1-.51-5.53c1,0,2,0,3,.11a27.34,27.34,0,0,0,.59,5.56h0A27.65,27.65,0,0,0,86.18,61.11h0A27.63,27.63,0,1,0,52.9,34.05v.13c-1-.06-2-.1-3-.1v0A30.67,30.67,0,1,1,92.39,62.34a29.14,29.14,0,0,1-4.82,1.56A30.65,30.65,0,0,1,50.69,41.12C50.57,40.62,50.46,40.12,50.37,39.61Zm42,22.73c-.39-.93-.82-1.85-1.29-2.75C91.56,60.5,92,61.42,92.39,62.34Z" fill="#c8d655" stroke="#c8d655" stroke-miterlimit="10" stroke-width="0.5"/></g><path id="Path_25-2" data-name="Path 25-2" d="M94.23,32.32H66.81v3.17H94.23Z" fill="#c8d655" stroke="#c8d655"/></g></svg>